<mxfile
  host="Electron" 
  agent="Mozilla/5.0 (Macintosh; Intel Mac OS X 10_15_7) AppleWebKit/537.36 (KHTML, like Gecko) draw.io/25.0.2 Chrome/128.0.6613.186 Electron/32.2.5 Safari/537.36" 
  version="25.0.2"
  >
  <diagram
    name="runtime-sequence-diagram"
    >
    <mxGraphModel
      grid="1" 
      gridSize="10" 
      guides="1" 
      tooltips="1" 
      connect="1" 
      arrows="1" 
      fold="1" 
      page="1" 
      pageScale="1" 
      pageWidth="1" 
      pageHeight="1" 
      math="0" 
      shadow="0"
      >
      <root>
        <mxCell
          id="page"
          />
        <mxCell
          id="root" 
          parent="page"
          />
        <mxCell
          style="verticalAlign=top;aspect=fixed;align=center;spacingLeft=5;spacingRight=5;spacingBottom=5;strokeColor=none;" 
          id="sequencediagram_runtimesequencediagram" 
          parent="root" 
          value="Runtime sequence diagram" 
          vertex="1"
          >
          <mxGeometry
            as="geometry" 
            width="830" 
            height="837.5" 
            x="0" 
            y="0"
            />
          </mxCell>
        <mxCell
          style="verticalAlign=top;aspect=fixed;align=center;spacingLeft=5;spacingRight=5;spacingBottom=5;noLabel=1;opacity=0;" 
          id="rows" 
          parent="sequencediagram_runtimesequencediagram" 
          value="Rows" 
          vertex="1"
          >
          <mxGeometry
            as="geometry" 
            width="160" 
            height="807.5" 
            x="15" 
            y="15"
            />
          </mxCell>
        <mxCell
          style="verticalAlign=top;aspect=fixed;align=center;spacingLeft=5;spacingRight=5;spacingBottom=5;noLabel=1;opacity=0;" 
          id="participant" 
          parent="rows" 
          value="Participant" 
          vertex="1"
          >
          <mxGeometry
            as="geometry" 
            width="160" 
            height="807.5" 
            x="0" 
            y="0"
            />
          </mxCell>
        <mxCell
          style="rounded=1;whiteSpace=wrap;verticalAlign=top;align=center;shape=image;verticalLabelPosition=bottom;image=data:image/svg+xml,%3Csvg%20xmlns%3D%22http%3A%2F%2Fwww.w3.org%2F2000%2Fsvg%22%20fill%3D%22none%22%20viewBox%3D%22-0.75%20-0.75%2016%2016%22%20stroke%3D%22%23000000%22%20aria-hidden%3D%22true%22%20id%3D%22Command-Line--Streamline-Heroicons-Outline%22%20height%3D%2216%22%20width%3D%2216%22%3E%3Cdesc%3E%20%20%20%20Command%20Line%20Streamline%20Icon%3A%20https%3A%2F%2Fstreamlinehq.com%20%20%3C%2Fdesc%3E%3Cpath%20stroke-linecap%3D%22round%22%20stroke-linejoin%3D%22round%22%20d%3D%22m4.078125%204.53125%201.8125%201.359375%20-1.8125%201.359375m2.71875%200h1.8125m-5.4375%204.984375h8.15625A1.359375%201.359375%200%200%200%2012.6875%2010.875V3.625a1.359375%201.359375%200%200%200%20-1.359375%20-1.359375H3.171875A1.359375%201.359375%200%200%200%201.8125%203.625v7.25a1.359375%201.359375%200%200%200%201.359375%201.359375Z%22%20stroke-width%3D%221.5%22%3E%3C%2Fpath%3E%3C%2Fsvg%3E;" 
          id="cliicon_cli" 
          parent="participant" 
          value="cli" 
          vertex="1"
          >
          <mxGeometry
            width="60" 
            height="60" 
            as="geometry" 
            x="50" 
            y="15"
            />
          </mxCell>
        <mxCell
          style="rounded=1;whiteSpace=wrap;verticalAlign=middle;align=center;line;strokeWidth=1;direction=south;html=1;dashed=1;" 
          id="shape_" 
          parent="participant" 
          value=" " 
          vertex="1"
          >
          <mxGeometry
            height="690" 
            as="geometry" 
            width="60" 
            x="50" 
            y="102.5"
            />
          </mxCell>
        <mxCell
          style="verticalAlign=top;aspect=fixed;align=center;spacingLeft=5;spacingRight=5;spacingBottom=5;noLabel=1;opacity=0;" 
          id="rows_2" 
          parent="participant" 
          value="Rows" 
          vertex="1"
          >
          <mxGeometry
            x="80" 
            y="105" 
            as="geometry" 
            width="0" 
            height="0"
            />
          </mxCell>
        <mxCell
          style="rounded=1;whiteSpace=wrap;verticalAlign=middle;align=center;textDirection=vertical-rl;" 
          id="activation_" 
          parent="rows_2" 
          value=" " 
          vertex="1"
          >
          <mxGeometry
            width="12" 
            height="225" 
            x="-6" 
            y="0" 
            as="geometry"
            />
          </mxCell>
        <mxCell
          style="rounded=1;whiteSpace=wrap;verticalAlign=middle;align=center;shape=umlFrame;html=1;pointerEvents=0;width=51;" 
          id="frame_render" 
          parent="rows_2" 
          value="Render" 
          vertex="1"
          >
          <mxGeometry
            width="700" 
            height="120" 
            x="-30" 
            y="255" 
            as="geometry"
            />
          </mxCell>
        <mxCell
          style="rounded=1;whiteSpace=wrap;verticalAlign=middle;align=center;shape=umlFrame;html=1;pointerEvents=0;width=123;" 
          id="frame_diagramoperations" 
          parent="rows_2" 
          value="Diagram operations" 
          vertex="1"
          >
          <mxGeometry
            width="700" 
            height="120" 
            x="-30" 
            y="405" 
            as="geometry"
            />
          </mxCell>
        <mxCell
          style="rounded=1;whiteSpace=wrap;verticalAlign=middle;align=center;shape=umlFrame;html=1;pointerEvents=0;width=93;" 
          id="frame_tfoperations" 
          parent="rows_2" 
          value="Tf operations" 
          vertex="1"
          >
          <mxGeometry
            width="700" 
            height="120" 
            x="-30" 
            y="555" 
            as="geometry"
            />
          </mxCell>
        <mxCell
          style="verticalAlign=top;aspect=fixed;align=center;spacingLeft=5;spacingRight=5;spacingBottom=5;noLabel=1;opacity=0;" 
          id="rows_3" 
          parent="sequencediagram_runtimesequencediagram" 
          value="Rows" 
          vertex="1"
          >
          <mxGeometry
            as="geometry" 
            width="160" 
            height="807.5" 
            x="175" 
            y="15"
            />
          </mxCell>
        <mxCell
          style="verticalAlign=top;aspect=fixed;align=center;spacingLeft=5;spacingRight=5;spacingBottom=5;noLabel=1;opacity=0;" 
          id="participant_2" 
          parent="rows_3" 
          value="Participant" 
          vertex="1"
          >
          <mxGeometry
            as="geometry" 
            width="160" 
            height="807.5" 
            x="0" 
            y="0"
            />
          </mxCell>
        <mxCell
          style="rounded=1;whiteSpace=wrap;verticalAlign=top;align=center;shape=image;verticalLabelPosition=bottom;image=data:image/svg+xml,%3C%3Fxml%20version%3D%221.0%22%20encoding%3D%22utf-8%22%3F%3E%3C!--%20Uploaded%20to%3A%20SVG%20Repo%2C%20www.svgrepo.com%2C%20Generator%3A%20SVG%20Repo%20Mixer%20Tools%20--%3E%3Csvg%20width%3D%22800px%22%20height%3D%22800px%22%20viewBox%3D%220%200%2024%2024%22%20fill%3D%22none%22%20xmlns%3D%22http%3A%2F%2Fwww.w3.org%2F2000%2Fsvg%22%3E%3Cpath%20d%3D%22M10%2017L8%2015L10%2013M14%2013L16%2015L14%2017M13%203H8.2C7.0799%203%206.51984%203%206.09202%203.21799C5.71569%203.40973%205.40973%203.71569%205.21799%204.09202C5%204.51984%205%205.0799%205%206.2V17.8C5%2018.9201%205%2019.4802%205.21799%2019.908C5.40973%2020.2843%205.71569%2020.5903%206.09202%2020.782C6.51984%2021%207.0799%2021%208.2%2021H15.8C16.9201%2021%2017.4802%2021%2017.908%2020.782C18.2843%2020.5903%2018.5903%2020.2843%2018.782%2019.908C19%2019.4802%2019%2018.9201%2019%2017.8V9M13%203L19%209M13%203V8C13%208.55228%2013.4477%209%2014%209H19%22%20stroke%3D%22%23000000%22%20stroke-width%3D%222%22%20stroke-linecap%3D%22round%22%20stroke-linejoin%3D%22round%22%2F%3E%3C%2Fsvg%3E;" 
          id="projecticon_project" 
          parent="participant_2" 
          value="project" 
          vertex="1"
          >
          <mxGeometry
            width="60" 
            height="60" 
            as="geometry" 
            x="50" 
            y="15"
            />
          </mxCell>
        <mxCell
          style="rounded=1;whiteSpace=wrap;verticalAlign=middle;align=center;line;strokeWidth=1;direction=south;html=1;dashed=1;" 
          id="shape_2" 
          parent="participant_2" 
          value=" " 
          vertex="1"
          >
          <mxGeometry
            height="690" 
            as="geometry" 
            width="60" 
            x="50" 
            y="102.5"
            />
          </mxCell>
        <mxCell
          style="verticalAlign=top;aspect=fixed;align=center;spacingLeft=5;spacingRight=5;spacingBottom=5;noLabel=1;opacity=0;" 
          id="rows_4" 
          parent="participant_2" 
          value="Rows" 
          vertex="1"
          >
          <mxGeometry
            x="80" 
            y="105" 
            as="geometry" 
            width="0" 
            height="0"
            />
          </mxCell>
        <mxCell
          style="rounded=1;whiteSpace=wrap;verticalAlign=middle;align=center;textDirection=vertical-rl;" 
          id="activation_2" 
          parent="rows_4" 
          value=" " 
          vertex="1"
          >
          <mxGeometry
            width="12" 
            height="30" 
            x="-6" 
            y="15" 
            as="geometry"
            />
          </mxCell>
        <mxCell
          style="rounded=1;whiteSpace=wrap;verticalAlign=middle;align=center;textDirection=vertical-rl;" 
          id="activation_3" 
          parent="rows_4" 
          value=" " 
          vertex="1"
          >
          <mxGeometry
            width="12" 
            height="30" 
            x="-6" 
            y="105" 
            as="geometry"
            />
          </mxCell>
        <mxCell
          style="verticalAlign=top;aspect=fixed;align=center;spacingLeft=5;spacingRight=5;spacingBottom=5;noLabel=1;opacity=0;" 
          id="rows_5" 
          parent="sequencediagram_runtimesequencediagram" 
          value="Rows" 
          vertex="1"
          >
          <mxGeometry
            as="geometry" 
            width="160" 
            height="807.5" 
            x="335" 
            y="15"
            />
          </mxCell>
        <mxCell
          style="verticalAlign=top;aspect=fixed;align=center;spacingLeft=5;spacingRight=5;spacingBottom=5;noLabel=1;opacity=0;" 
          id="participant_3" 
          parent="rows_5" 
          value="Participant" 
          vertex="1"
          >
          <mxGeometry
            as="geometry" 
            width="160" 
            height="807.5" 
            x="0" 
            y="0"
            />
          </mxCell>
        <mxCell
          style="rounded=1;whiteSpace=wrap;verticalAlign=top;align=center;shape=image;verticalLabelPosition=bottom;image=data:image/svg+xml,%3C%3Fxml%20version%3D%221.0%22%20encoding%3D%22utf-8%22%3F%3E%3Csvg%20version%3D%221.1%22%20id%3D%22Layer_1%22%20xmlns%3D%22http%3A%2F%2Fwww.w3.org%2F2000%2Fsvg%22%20xmlns%3Axlink%3D%22http%3A%2F%2Fwww.w3.org%2F1999%2Fxlink%22%20x%3D%220px%22%20y%3D%220px%22%20viewBox%3D%220%200%20122.88%2088.17%22%20style%3D%22enable-background%3Anew%200%200%20122.88%2088.17%22%20xml%3Aspace%3D%22preserve%22%3E%3Cstyle%20type%3D%22text%2Fcss%22%3E.st0%7Bfill%3A%230091E2%3B%7D%3C%2Fstyle%3E%3Cg%3E%3Cpath%20class%3D%22st0%22%20d%3D%22M121.68%2C33.34c-0.34-0.28-3.42-2.62-10.03-2.62c-1.71%2C0-3.48%2C0.17-5.19%2C0.46c-1.25-8.72-8.49-12.94-8.78-13.16%20l-1.77-1.03l-1.14%2C1.65c-1.42%2C2.22-2.51%2C4.73-3.13%2C7.29c-1.2%2C4.96-0.46%2C9.63%2C2.05%2C13.62c-3.02%2C1.71-7.92%2C2.11-8.95%2C2.17l-80.93%2C0%20c-2.11%2C0-3.82%2C1.71-3.82%2C3.82c-0.11%2C7.07%2C1.08%2C14.13%2C3.53%2C20.8c2.79%2C7.29%2C6.95%2C12.71%2C12.31%2C16.01c6.04%2C3.7%2C15.9%2C5.81%2C27.01%2C5.81%20c5.01%2C0%2C10.03-0.46%2C14.99-1.37c6.9-1.25%2C13.51-3.65%2C19.6-7.12c5.02-2.91%2C9.52-6.61%2C13.34-10.94c6.44-7.24%2C10.26-15.33%2C13.05-22.51%20c0.4%2C0%2C0.74%2C0%2C1.14%2C0c7.01%2C0%2C11.34-2.79%2C13.73-5.19c1.6-1.48%2C2.79-3.31%2C3.65-5.36l0.51-1.48L121.68%2C33.34L121.68%2C33.34z%20M71.59%2C39.38h10.83c0.51%2C0%2C0.97-0.4%2C0.97-0.97v-9.69c0-0.51-0.4-0.97-0.97-0.97l0%2C0l-10.83%2C0c-0.51%2C0-0.97%2C0.4-0.97%2C0.97l0%2C0v9.69%20C70.68%2C38.98%2C71.08%2C39.38%2C71.59%2C39.38L71.59%2C39.38z%20M56.49%2C11.63h10.83c0.51%2C0%2C0.97-0.4%2C0.97-0.97V0.97c0-0.51-0.46-0.97-0.97-0.97%20L56.49%2C0c-0.51%2C0-0.97%2C0.4-0.97%2C0.97l0%2C0v9.69C55.52%2C11.17%2C55.97%2C11.63%2C56.49%2C11.63L56.49%2C11.63z%20M56.49%2C25.53h10.83%20c0.51%2C0%2C0.97-0.46%2C0.97-0.97v-9.69c0-0.51-0.46-0.97-0.97-0.97H56.49c-0.51%2C0-0.97%2C0.4-0.97%2C0.97l0%2C0v9.69%20C55.52%2C25.08%2C55.97%2C25.53%2C56.49%2C25.53L56.49%2C25.53z%20M41.5%2C25.53h10.83c0.51%2C0%2C0.97-0.46%2C0.97-0.97v-9.69c0-0.51-0.4-0.97-0.97-0.97%20l0%2C0H41.5c-0.51%2C0-0.97%2C0.4-0.97%2C0.97l0%2C0v9.69C40.53%2C25.08%2C40.93%2C25.53%2C41.5%2C25.53L41.5%2C25.53z%20M26.28%2C25.53h10.83%20c0.51%2C0%2C0.97-0.46%2C0.97-0.97v-9.69c0-0.51-0.4-0.97-0.97-0.97l0%2C0H26.28c-0.51%2C0-0.97%2C0.4-0.97%2C0.97v9.69%20C25.37%2C25.08%2C25.77%2C25.53%2C26.28%2C25.53L26.28%2C25.53z%20M56.49%2C39.38h10.83c0.51%2C0%2C0.97-0.4%2C0.97-0.97v-9.69c0-0.51-0.4-0.97-0.97-0.97%20l0%2C0l-10.83%2C0c-0.51%2C0-0.97%2C0.4-0.97%2C0.97l0%2C0v9.69C55.52%2C38.98%2C55.97%2C39.38%2C56.49%2C39.38L56.49%2C39.38L56.49%2C39.38z%20M41.5%2C39.38%20h10.83c0.51%2C0%2C0.97-0.4%2C0.97-0.97l0%2C0v-9.69c0-0.51-0.4-0.97-0.97-0.97l0%2C0l-10.83%2C0c-0.51%2C0-0.97%2C0.4-0.97%2C0.97l0%2C0v9.69%20C40.53%2C38.98%2C40.93%2C39.38%2C41.5%2C39.38L41.5%2C39.38L41.5%2C39.38z%20M26.28%2C39.38h10.83c0.51%2C0%2C0.97-0.4%2C0.97-0.97l0%2C0v-9.69%20c0-0.51-0.4-0.97-0.97-0.97l0%2C0l-10.83%2C0c-0.51%2C0-0.97%2C0.4-0.97%2C0.97v9.69C25.37%2C38.98%2C25.77%2C39.38%2C26.28%2C39.38L26.28%2C39.38z%20M11.35%2C39.38h10.83c0.51%2C0%2C0.97-0.4%2C0.97-0.97l0%2C0v-9.69c0-0.51-0.4-0.97-0.97-0.97l0%2C0l-10.83%2C0c-0.51%2C0-0.97%2C0.4-0.97%2C0.97l0%2C0%20v9.69C10.44%2C38.98%2C10.84%2C39.38%2C11.35%2C39.38L11.35%2C39.38L11.35%2C39.38z%22%2F%3E%3C%2Fg%3E%3C%2Fsvg%3E;" 
          id="dockericon_engine" 
          parent="participant_3" 
          value="engine" 
          vertex="1"
          >
          <mxGeometry
            width="60" 
            height="60" 
            as="geometry" 
            x="50" 
            y="15"
            />
          </mxCell>
        <mxCell
          style="rounded=1;whiteSpace=wrap;verticalAlign=middle;align=center;line;strokeWidth=1;direction=south;html=1;dashed=1;" 
          id="shape_3" 
          parent="participant_3" 
          value=" " 
          vertex="1"
          >
          <mxGeometry
            height="690" 
            as="geometry" 
            width="60" 
            x="50" 
            y="102.5"
            />
          </mxCell>
        <mxCell
          style="verticalAlign=top;aspect=fixed;align=center;spacingLeft=5;spacingRight=5;spacingBottom=5;noLabel=1;opacity=0;" 
          id="rows_6" 
          parent="participant_3" 
          value="Rows" 
          vertex="1"
          >
          <mxGeometry
            x="80" 
            y="105" 
            as="geometry" 
            width="0" 
            height="0"
            />
          </mxCell>
        <mxCell
          style="rounded=1;whiteSpace=wrap;verticalAlign=middle;align=center;textDirection=vertical-rl;" 
          id="activation_4" 
          parent="rows_6" 
          value=" " 
          vertex="1"
          >
          <mxGeometry
            width="12" 
            height="135" 
            x="-6" 
            y="75" 
            as="geometry"
            />
          </mxCell>
        <mxCell
          style="rounded=1;whiteSpace=wrap;verticalAlign=middle;align=center;textDirection=vertical-rl;" 
          id="activation_5" 
          parent="rows_6" 
          value=" " 
          vertex="1"
          >
          <mxGeometry
            width="12" 
            height="60" 
            x="-6" 
            y="300" 
            as="geometry"
            />
          </mxCell>
        <mxCell
          style="rounded=1;whiteSpace=wrap;verticalAlign=middle;align=center;textDirection=vertical-rl;" 
          id="activation_6" 
          parent="rows_6" 
          value=" " 
          vertex="1"
          >
          <mxGeometry
            width="12" 
            height="60" 
            x="-6" 
            y="450" 
            as="geometry"
            />
          </mxCell>
        <mxCell
          style="rounded=1;whiteSpace=wrap;verticalAlign=middle;align=center;textDirection=vertical-rl;" 
          id="activation_7" 
          parent="rows_6" 
          value=" " 
          vertex="1"
          >
          <mxGeometry
            width="12" 
            height="60" 
            x="-6" 
            y="600" 
            as="geometry"
            />
          </mxCell>
        <mxCell
          style="verticalAlign=top;aspect=fixed;align=center;spacingLeft=5;spacingRight=5;spacingBottom=5;noLabel=1;opacity=0;" 
          id="rows_7" 
          parent="sequencediagram_runtimesequencediagram" 
          value="Rows" 
          vertex="1"
          >
          <mxGeometry
            as="geometry" 
            width="160" 
            height="807.5" 
            x="495" 
            y="15"
            />
          </mxCell>
        <mxCell
          style="verticalAlign=top;aspect=fixed;align=center;spacingLeft=5;spacingRight=5;spacingBottom=5;noLabel=1;opacity=0;" 
          id="participant_4" 
          parent="rows_7" 
          value="Participant" 
          vertex="1"
          >
          <mxGeometry
            as="geometry" 
            width="160" 
            height="807.5" 
            x="0" 
            y="0"
            />
          </mxCell>
        <mxCell
          style="rounded=1;whiteSpace=wrap;verticalAlign=top;align=center;shape=image;verticalLabelPosition=bottom;image=data:image/svg+xml,%3C%3Fxml%20version%3D%221.0%22%20encoding%3D%22utf-8%22%3F%3E%3Csvg%20version%3D%221.1%22%20id%3D%22Layer_1%22%20xmlns%3D%22http%3A%2F%2Fwww.w3.org%2F2000%2Fsvg%22%20xmlns%3Axlink%3D%22http%3A%2F%2Fwww.w3.org%2F1999%2Fxlink%22%20x%3D%220px%22%20y%3D%220px%22%20viewBox%3D%220%200%20122.88%2088.17%22%20style%3D%22enable-background%3Anew%200%200%20122.88%2088.17%22%20xml%3Aspace%3D%22preserve%22%3E%3Cstyle%20type%3D%22text%2Fcss%22%3E.st0%7Bfill%3A%230091E2%3B%7D%3C%2Fstyle%3E%3Cg%3E%3Cpath%20class%3D%22st0%22%20d%3D%22M121.68%2C33.34c-0.34-0.28-3.42-2.62-10.03-2.62c-1.71%2C0-3.48%2C0.17-5.19%2C0.46c-1.25-8.72-8.49-12.94-8.78-13.16%20l-1.77-1.03l-1.14%2C1.65c-1.42%2C2.22-2.51%2C4.73-3.13%2C7.29c-1.2%2C4.96-0.46%2C9.63%2C2.05%2C13.62c-3.02%2C1.71-7.92%2C2.11-8.95%2C2.17l-80.93%2C0%20c-2.11%2C0-3.82%2C1.71-3.82%2C3.82c-0.11%2C7.07%2C1.08%2C14.13%2C3.53%2C20.8c2.79%2C7.29%2C6.95%2C12.71%2C12.31%2C16.01c6.04%2C3.7%2C15.9%2C5.81%2C27.01%2C5.81%20c5.01%2C0%2C10.03-0.46%2C14.99-1.37c6.9-1.25%2C13.51-3.65%2C19.6-7.12c5.02-2.91%2C9.52-6.61%2C13.34-10.94c6.44-7.24%2C10.26-15.33%2C13.05-22.51%20c0.4%2C0%2C0.74%2C0%2C1.14%2C0c7.01%2C0%2C11.34-2.79%2C13.73-5.19c1.6-1.48%2C2.79-3.31%2C3.65-5.36l0.51-1.48L121.68%2C33.34L121.68%2C33.34z%20M71.59%2C39.38h10.83c0.51%2C0%2C0.97-0.4%2C0.97-0.97v-9.69c0-0.51-0.4-0.97-0.97-0.97l0%2C0l-10.83%2C0c-0.51%2C0-0.97%2C0.4-0.97%2C0.97l0%2C0v9.69%20C70.68%2C38.98%2C71.08%2C39.38%2C71.59%2C39.38L71.59%2C39.38z%20M56.49%2C11.63h10.83c0.51%2C0%2C0.97-0.4%2C0.97-0.97V0.97c0-0.51-0.46-0.97-0.97-0.97%20L56.49%2C0c-0.51%2C0-0.97%2C0.4-0.97%2C0.97l0%2C0v9.69C55.52%2C11.17%2C55.97%2C11.63%2C56.49%2C11.63L56.49%2C11.63z%20M56.49%2C25.53h10.83%20c0.51%2C0%2C0.97-0.46%2C0.97-0.97v-9.69c0-0.51-0.46-0.97-0.97-0.97H56.49c-0.51%2C0-0.97%2C0.4-0.97%2C0.97l0%2C0v9.69%20C55.52%2C25.08%2C55.97%2C25.53%2C56.49%2C25.53L56.49%2C25.53z%20M41.5%2C25.53h10.83c0.51%2C0%2C0.97-0.46%2C0.97-0.97v-9.69c0-0.51-0.4-0.97-0.97-0.97%20l0%2C0H41.5c-0.51%2C0-0.97%2C0.4-0.97%2C0.97l0%2C0v9.69C40.53%2C25.08%2C40.93%2C25.53%2C41.5%2C25.53L41.5%2C25.53z%20M26.28%2C25.53h10.83%20c0.51%2C0%2C0.97-0.46%2C0.97-0.97v-9.69c0-0.51-0.4-0.97-0.97-0.97l0%2C0H26.28c-0.51%2C0-0.97%2C0.4-0.97%2C0.97v9.69%20C25.37%2C25.08%2C25.77%2C25.53%2C26.28%2C25.53L26.28%2C25.53z%20M56.49%2C39.38h10.83c0.51%2C0%2C0.97-0.4%2C0.97-0.97v-9.69c0-0.51-0.4-0.97-0.97-0.97%20l0%2C0l-10.83%2C0c-0.51%2C0-0.97%2C0.4-0.97%2C0.97l0%2C0v9.69C55.52%2C38.98%2C55.97%2C39.38%2C56.49%2C39.38L56.49%2C39.38L56.49%2C39.38z%20M41.5%2C39.38%20h10.83c0.51%2C0%2C0.97-0.4%2C0.97-0.97l0%2C0v-9.69c0-0.51-0.4-0.97-0.97-0.97l0%2C0l-10.83%2C0c-0.51%2C0-0.97%2C0.4-0.97%2C0.97l0%2C0v9.69%20C40.53%2C38.98%2C40.93%2C39.38%2C41.5%2C39.38L41.5%2C39.38L41.5%2C39.38z%20M26.28%2C39.38h10.83c0.51%2C0%2C0.97-0.4%2C0.97-0.97l0%2C0v-9.69%20c0-0.51-0.4-0.97-0.97-0.97l0%2C0l-10.83%2C0c-0.51%2C0-0.97%2C0.4-0.97%2C0.97v9.69C25.37%2C38.98%2C25.77%2C39.38%2C26.28%2C39.38L26.28%2C39.38z%20M11.35%2C39.38h10.83c0.51%2C0%2C0.97-0.4%2C0.97-0.97l0%2C0v-9.69c0-0.51-0.4-0.97-0.97-0.97l0%2C0l-10.83%2C0c-0.51%2C0-0.97%2C0.4-0.97%2C0.97l0%2C0%20v9.69C10.44%2C38.98%2C10.84%2C39.38%2C11.35%2C39.38L11.35%2C39.38L11.35%2C39.38z%22%2F%3E%3C%2Fg%3E%3C%2Fsvg%3E;" 
          id="dockericon_drawio" 
          parent="participant_4" 
          value="drawio" 
          vertex="1"
          >
          <mxGeometry
            width="60" 
            height="60" 
            as="geometry" 
            x="50" 
            y="15"
            />
          </mxCell>
        <mxCell
          style="rounded=1;whiteSpace=wrap;verticalAlign=middle;align=center;line;strokeWidth=1;direction=south;html=1;dashed=1;" 
          id="shape_4" 
          parent="participant_4" 
          value=" " 
          vertex="1"
          >
          <mxGeometry
            height="690" 
            as="geometry" 
            width="60" 
            x="50" 
            y="102.5"
            />
          </mxCell>
        <mxCell
          style="verticalAlign=top;aspect=fixed;align=center;spacingLeft=5;spacingRight=5;spacingBottom=5;noLabel=1;opacity=0;" 
          id="rows_8" 
          parent="participant_4" 
          value="Rows" 
          vertex="1"
          >
          <mxGeometry
            x="80" 
            y="105" 
            as="geometry" 
            width="0" 
            height="0"
            />
          </mxCell>
        <mxCell
          style="rounded=1;whiteSpace=wrap;verticalAlign=middle;align=center;textDirection=vertical-rl;" 
          id="activation_8" 
          parent="rows_8" 
          value=" " 
          vertex="1"
          >
          <mxGeometry
            width="12" 
            height="30" 
            x="-6" 
            y="465" 
            as="geometry"
            />
          </mxCell>
        <mxCell
          style="verticalAlign=top;aspect=fixed;align=center;spacingLeft=5;spacingRight=5;spacingBottom=5;noLabel=1;opacity=0;" 
          id="rows_9" 
          parent="sequencediagram_runtimesequencediagram" 
          value="Rows" 
          vertex="1"
          >
          <mxGeometry
            as="geometry" 
            width="160" 
            height="807.5" 
            x="655" 
            y="15"
            />
          </mxCell>
        <mxCell
          style="verticalAlign=top;aspect=fixed;align=center;spacingLeft=5;spacingRight=5;spacingBottom=5;noLabel=1;opacity=0;" 
          id="participant_5" 
          parent="rows_9" 
          value="Participant" 
          vertex="1"
          >
          <mxGeometry
            as="geometry" 
            width="160" 
            height="807.5" 
            x="0" 
            y="0"
            />
          </mxCell>
        <mxCell
          style="rounded=1;whiteSpace=wrap;verticalAlign=top;align=center;shape=image;verticalLabelPosition=bottom;image=data:image/svg+xml,%3C%3Fxml%20version%3D%221.0%22%20encoding%3D%22utf-8%22%3F%3E%3Csvg%20version%3D%221.1%22%20id%3D%22Layer_1%22%20xmlns%3D%22http%3A%2F%2Fwww.w3.org%2F2000%2Fsvg%22%20xmlns%3Axlink%3D%22http%3A%2F%2Fwww.w3.org%2F1999%2Fxlink%22%20x%3D%220px%22%20y%3D%220px%22%20viewBox%3D%220%200%20122.88%2088.17%22%20style%3D%22enable-background%3Anew%200%200%20122.88%2088.17%22%20xml%3Aspace%3D%22preserve%22%3E%3Cstyle%20type%3D%22text%2Fcss%22%3E.st0%7Bfill%3A%230091E2%3B%7D%3C%2Fstyle%3E%3Cg%3E%3Cpath%20class%3D%22st0%22%20d%3D%22M121.68%2C33.34c-0.34-0.28-3.42-2.62-10.03-2.62c-1.71%2C0-3.48%2C0.17-5.19%2C0.46c-1.25-8.72-8.49-12.94-8.78-13.16%20l-1.77-1.03l-1.14%2C1.65c-1.42%2C2.22-2.51%2C4.73-3.13%2C7.29c-1.2%2C4.96-0.46%2C9.63%2C2.05%2C13.62c-3.02%2C1.71-7.92%2C2.11-8.95%2C2.17l-80.93%2C0%20c-2.11%2C0-3.82%2C1.71-3.82%2C3.82c-0.11%2C7.07%2C1.08%2C14.13%2C3.53%2C20.8c2.79%2C7.29%2C6.95%2C12.71%2C12.31%2C16.01c6.04%2C3.7%2C15.9%2C5.81%2C27.01%2C5.81%20c5.01%2C0%2C10.03-0.46%2C14.99-1.37c6.9-1.25%2C13.51-3.65%2C19.6-7.12c5.02-2.91%2C9.52-6.61%2C13.34-10.94c6.44-7.24%2C10.26-15.33%2C13.05-22.51%20c0.4%2C0%2C0.74%2C0%2C1.14%2C0c7.01%2C0%2C11.34-2.79%2C13.73-5.19c1.6-1.48%2C2.79-3.31%2C3.65-5.36l0.51-1.48L121.68%2C33.34L121.68%2C33.34z%20M71.59%2C39.38h10.83c0.51%2C0%2C0.97-0.4%2C0.97-0.97v-9.69c0-0.51-0.4-0.97-0.97-0.97l0%2C0l-10.83%2C0c-0.51%2C0-0.97%2C0.4-0.97%2C0.97l0%2C0v9.69%20C70.68%2C38.98%2C71.08%2C39.38%2C71.59%2C39.38L71.59%2C39.38z%20M56.49%2C11.63h10.83c0.51%2C0%2C0.97-0.4%2C0.97-0.97V0.97c0-0.51-0.46-0.97-0.97-0.97%20L56.49%2C0c-0.51%2C0-0.97%2C0.4-0.97%2C0.97l0%2C0v9.69C55.52%2C11.17%2C55.97%2C11.63%2C56.49%2C11.63L56.49%2C11.63z%20M56.49%2C25.53h10.83%20c0.51%2C0%2C0.97-0.46%2C0.97-0.97v-9.69c0-0.51-0.46-0.97-0.97-0.97H56.49c-0.51%2C0-0.97%2C0.4-0.97%2C0.97l0%2C0v9.69%20C55.52%2C25.08%2C55.97%2C25.53%2C56.49%2C25.53L56.49%2C25.53z%20M41.5%2C25.53h10.83c0.51%2C0%2C0.97-0.46%2C0.97-0.97v-9.69c0-0.51-0.4-0.97-0.97-0.97%20l0%2C0H41.5c-0.51%2C0-0.97%2C0.4-0.97%2C0.97l0%2C0v9.69C40.53%2C25.08%2C40.93%2C25.53%2C41.5%2C25.53L41.5%2C25.53z%20M26.28%2C25.53h10.83%20c0.51%2C0%2C0.97-0.46%2C0.97-0.97v-9.69c0-0.51-0.4-0.97-0.97-0.97l0%2C0H26.28c-0.51%2C0-0.97%2C0.4-0.97%2C0.97v9.69%20C25.37%2C25.08%2C25.77%2C25.53%2C26.28%2C25.53L26.28%2C25.53z%20M56.49%2C39.38h10.83c0.51%2C0%2C0.97-0.4%2C0.97-0.97v-9.69c0-0.51-0.4-0.97-0.97-0.97%20l0%2C0l-10.83%2C0c-0.51%2C0-0.97%2C0.4-0.97%2C0.97l0%2C0v9.69C55.52%2C38.98%2C55.97%2C39.38%2C56.49%2C39.38L56.49%2C39.38L56.49%2C39.38z%20M41.5%2C39.38%20h10.83c0.51%2C0%2C0.97-0.4%2C0.97-0.97l0%2C0v-9.69c0-0.51-0.4-0.97-0.97-0.97l0%2C0l-10.83%2C0c-0.51%2C0-0.97%2C0.4-0.97%2C0.97l0%2C0v9.69%20C40.53%2C38.98%2C40.93%2C39.38%2C41.5%2C39.38L41.5%2C39.38L41.5%2C39.38z%20M26.28%2C39.38h10.83c0.51%2C0%2C0.97-0.4%2C0.97-0.97l0%2C0v-9.69%20c0-0.51-0.4-0.97-0.97-0.97l0%2C0l-10.83%2C0c-0.51%2C0-0.97%2C0.4-0.97%2C0.97v9.69C25.37%2C38.98%2C25.77%2C39.38%2C26.28%2C39.38L26.28%2C39.38z%20M11.35%2C39.38h10.83c0.51%2C0%2C0.97-0.4%2C0.97-0.97l0%2C0v-9.69c0-0.51-0.4-0.97-0.97-0.97l0%2C0l-10.83%2C0c-0.51%2C0-0.97%2C0.4-0.97%2C0.97l0%2C0%20v9.69C10.44%2C38.98%2C10.84%2C39.38%2C11.35%2C39.38L11.35%2C39.38L11.35%2C39.38z%22%2F%3E%3C%2Fg%3E%3C%2Fsvg%3E;" 
          id="dockericon_tf" 
          parent="participant_5" 
          value="tf" 
          vertex="1"
          >
          <mxGeometry
            width="60" 
            height="60" 
            as="geometry" 
            x="50" 
            y="15"
            />
          </mxCell>
        <mxCell
          style="rounded=1;whiteSpace=wrap;verticalAlign=middle;align=center;line;strokeWidth=1;direction=south;html=1;dashed=1;" 
          id="shape_5" 
          parent="participant_5" 
          value=" " 
          vertex="1"
          >
          <mxGeometry
            height="690" 
            as="geometry" 
            width="60" 
            x="50" 
            y="102.5"
            />
          </mxCell>
        <mxCell
          style="verticalAlign=top;aspect=fixed;align=center;spacingLeft=5;spacingRight=5;spacingBottom=5;noLabel=1;opacity=0;" 
          id="rows_10" 
          parent="participant_5" 
          value="Rows" 
          vertex="1"
          >
          <mxGeometry
            x="80" 
            y="105" 
            as="geometry" 
            width="0" 
            height="0"
            />
          </mxCell>
        <mxCell
          style="rounded=1;whiteSpace=wrap;verticalAlign=middle;align=center;textDirection=vertical-rl;" 
          id="activation_9" 
          parent="rows_10" 
          value=" " 
          vertex="1"
          >
          <mxGeometry
            width="12" 
            height="30" 
            x="-6" 
            y="615" 
            as="geometry"
            />
          </mxCell>
        <mxCell
          id="message_readconfig" 
          parent="root" 
          edge="1" 
          value="read config"
          >
          <mxGeometry
            relative="1" 
            as="geometry"
            >
            <mxPoint
              as="sourcePoint" 
              x="101" 
              y="135"
              />
            <mxPoint
              as="targetPoint" 
              x="249" 
              y="135"
              />
            </mxGeometry>
          </mxCell>
        <mxCell
          id="message_runversionedengine" 
          parent="root" 
          edge="1" 
          value="run versioned engine"
          >
          <mxGeometry
            relative="1" 
            as="geometry"
            >
            <mxPoint
              as="sourcePoint" 
              x="101" 
              y="195"
              />
            <mxPoint
              as="targetPoint" 
              x="409" 
              y="195"
              />
            </mxGeometry>
          </mxCell>
        <mxCell
          id="message_engineversion" 
          parent="root" 
          edge="1" 
          style="dashed=1;" 
          value="engine version"
          >
          <mxGeometry
            relative="1" 
            as="geometry"
            >
            <mxPoint
              as="sourcePoint" 
              x="249" 
              y="165"
              />
            <mxPoint
              as="targetPoint" 
              x="101" 
              y="165"
              />
            </mxGeometry>
          </mxCell>
        <mxCell
          id="message_componentsmodel" 
          parent="root" 
          edge="1" 
          style="dashed=1;" 
          value="components/model"
          >
          <mxGeometry
            relative="1" 
            as="geometry"
            >
            <mxPoint
              as="sourcePoint" 
              x="261" 
              y="255"
              />
            <mxPoint
              as="targetPoint" 
              x="409" 
              y="255"
              />
            </mxGeometry>
          </mxCell>
        <mxCell
          id="message_readtsxdata" 
          parent="root" 
          edge="1" 
          value="read .tsx/data"
          >
          <mxGeometry
            relative="1" 
            as="geometry"
            >
            <mxPoint
              as="sourcePoint" 
              x="409" 
              y="225"
              />
            <mxPoint
              as="targetPoint" 
              x="261" 
              y="225"
              />
            </mxGeometry>
          </mxCell>
        <mxCell
          id="message_enginecommands" 
          parent="root" 
          edge="1" 
          style="dashed=1;" 
          value="engine commands"
          >
          <mxGeometry
            relative="1" 
            as="geometry"
            >
            <mxPoint
              as="sourcePoint" 
              x="421" 
              y="285"
              />
            <mxPoint
              as="targetPoint" 
              x="421" 
              y="315"
              />
            <Array
              as="points"
              >
              <mxPoint
                x="436" 
                y="285"
                />
              <mxPoint
                x="436" 
                y="315"
                />
              </Array>
            </mxGeometry>
          </mxCell>
        <mxCell
          id="message_output" 
          parent="root" 
          edge="1" 
          style="dashed=1;" 
          value="output"
          >
          <mxGeometry
            relative="1" 
            as="geometry"
            >
            <mxPoint
              as="sourcePoint" 
              x="409" 
              y="330"
              />
            <mxPoint
              as="targetPoint" 
              x="101" 
              y="330"
              />
            </mxGeometry>
          </mxCell>
        <mxCell
          id="message_renderdrawiotf" 
          parent="root" 
          edge="1" 
          value="render drawio/tf"
          >
          <mxGeometry
            relative="1" 
            as="geometry"
            >
            <mxPoint
              as="sourcePoint" 
              x="421" 
              y="435"
              />
            <mxPoint
              as="targetPoint" 
              x="421" 
              y="465"
              />
            <Array
              as="points"
              >
              <mxPoint
                x="436" 
                y="435"
                />
              <mxPoint
                x="436" 
                y="465"
                />
              </Array>
            </mxGeometry>
          </mxCell>
        <mxCell
          id="message_renderpng" 
          parent="root" 
          edge="1" 
          value="render png"
          >
          <mxGeometry
            relative="1" 
            as="geometry"
            >
            <mxPoint
              as="sourcePoint" 
              x="421" 
              y="585"
              />
            <mxPoint
              as="targetPoint" 
              x="569" 
              y="585"
              />
            </mxGeometry>
          </mxCell>
        <mxCell
          id="message_terraformcommands" 
          parent="root" 
          edge="1" 
          value="terraform commands"
          >
          <mxGeometry
            relative="1" 
            as="geometry"
            >
            <mxPoint
              as="sourcePoint" 
              x="421" 
              y="735"
              />
            <mxPoint
              as="targetPoint" 
              x="729" 
              y="735"
              />
            </mxGeometry>
          </mxCell>
        <mxCell
          id="message_png" 
          parent="root" 
          edge="1" 
          style="dashed=1;" 
          value="png"
          >
          <mxGeometry
            relative="1" 
            as="geometry"
            >
            <mxPoint
              as="sourcePoint" 
              x="569" 
              y="615"
              />
            <mxPoint
              as="targetPoint" 
              x="421" 
              y="615"
              />
            </mxGeometry>
          </mxCell>
        <mxCell
          id="message_uptodateinfrastructure" 
          parent="root" 
          edge="1" 
          style="dashed=1;" 
          value="up to date infrastructure"
          >
          <mxGeometry
            relative="1" 
            as="geometry"
            >
            <mxPoint
              as="sourcePoint" 
              x="729" 
              y="765"
              />
            <mxPoint
              as="targetPoint" 
              x="421" 
              y="765"
              />
            </mxGeometry>
          </mxCell>
        </root>
      </mxGraphModel>
    </diagram>
  </mxfile>